<svg preserveAspectRatio="none" overflow="visible" style="display: block;" width="30" height="30" viewBox="0 0 30 30" fill="none" xmlns="http://www.w3.org/2000/svg">
<g id="solar:round-transfer-horizontal-bold-duotone">
<path id="Vector" opacity="0.5" d="M15 27.5C21.9037 27.5 27.5 21.9037 27.5 15C27.5 8.09625 21.9037 2.5 15 2.5C8.09625 2.5 2.5 8.09625 2.5 15C2.5 21.9037 8.09625 27.5 15 27.5Z" fill="#3C83F6"/>
<path id="Vector_2" d="M13.6625 9.45689C13.7581 9.3768 13.8367 9.27846 13.8938 9.1676C13.9509 9.05675 13.9853 8.93562 13.9951 8.81131C14.0048 8.68699 13.9896 8.56198 13.9504 8.44361C13.9112 8.32523 13.8488 8.21586 13.7668 8.12191C13.6848 8.02795 13.5849 7.95129 13.4729 7.89642C13.361 7.84155 13.2392 7.80957 13.1147 7.80235C12.9902 7.79513 12.8655 7.81282 12.748 7.85438C12.6304 7.89594 12.5223 7.96054 12.43 8.04439L8.13375 11.7944C7.99001 11.9199 7.88798 12.0862 7.84129 12.2712C7.7946 12.4562 7.80547 12.6511 7.87245 12.8297C7.93943 13.0084 8.05933 13.1624 8.21614 13.2711C8.37295 13.3798 8.55919 13.4381 8.75 13.4381H21.25C21.4986 13.4381 21.7371 13.3394 21.9129 13.1635C22.0887 12.9877 22.1875 12.7493 22.1875 12.5006C22.1875 12.252 22.0887 12.0135 21.9129 11.8377C21.7371 11.6619 21.4986 11.5631 21.25 11.5631H11.25L13.6625 9.45689ZM8.75 18.4381H18.75L16.3375 20.5444C16.1559 20.7094 16.0462 20.939 16.032 21.184C16.0178 21.429 16.1002 21.6698 16.2615 21.8547C16.4229 22.0395 16.6502 22.1538 16.8949 22.1729C17.1395 22.192 17.3819 22.1145 17.57 21.9569L21.8663 18.2069C22.01 18.0814 22.112 17.9151 22.1587 17.73C22.2054 17.545 22.1945 17.3502 22.1276 17.1715C22.0606 16.9929 21.9407 16.8389 21.7839 16.7302C21.6271 16.6215 21.4408 16.5632 21.25 16.5631H8.75C8.50136 16.5631 8.2629 16.6619 8.08709 16.8377C7.91127 17.0135 7.8125 17.252 7.8125 17.5006C7.8125 17.7493 7.91127 17.9877 8.08709 18.1635C8.2629 18.3394 8.50136 18.4381 8.75 18.4381Z" fill="#3C83F6"/>
</g>
</svg>
